<svg width="1920" height="306" viewBox="0 0 1920 306" fill="none" xmlns="http://www.w3.org/2000/svg">
<g clip-path="url(#clip0_3_85)">
<path d="M0 244.8L64.4333 224.432C128.867 203.681 257.733 163.519 386.6 147.932C515.467 132.919 644.333 142.481 773.2 168.3C902.067 194.119 1030.93 234.281 1159.8 244.8C1288.67 255.319 1417.53 234.281 1546.4 209.132C1675.27 183.6 1804.13 153 1868.57 137.7L1933 122.4V306H1868.57C1804.13 306 1675.27 306 1546.4 306C1417.53 306 1288.67 306 1159.8 306C1030.93 306 902.067 306 773.2 306C644.333 306 515.467 306 386.6 306C257.733 306 128.867 306 64.4333 306H0V244.8Z" fill="#FDF7F1"/>
</g>
<defs>
<clipPath id="clip0_3_85">
<rect width="1933" height="306" fill="white"/>
</clipPath>
</defs>
</svg>
